<?xml version="1.0" ?><svg viewBox="0 0 64 64" xmlns="http://www.w3.org/2000/svg"><g data-name="Puffer Fish" id="Puffer_Fish"><path d="M6.09,35.79l1.84,6.87a2.46,2.46,0,0,0,1.52,1.68,2.51,2.51,0,0,0,2.26-.26l4.93-3.32a18.39,18.39,0,0,0,3.26,5l-.87.87A1,1,0,0,0,19,48a1,1,0,0,0,.71.29,1,1,0,0,0,.71-.29l.87-.88A19.66,19.66,0,0,0,23.69,49l-.62,1.08a1,1,0,0,0,.37,1.37,1,1,0,0,0,1.36-.37L25.43,50a20,20,0,0,0,2.75,1.15l-.32,1.21a1,1,0,0,0,.71,1.22.73.73,0,0,0,.25,0,1,1,0,0,0,1-.75l.32-1.19a19.51,19.51,0,0,0,3,.4v1.23a1,1,0,0,0,2,0V52a18.76,18.76,0,0,0,3-.39l.32,1.2a1,1,0,0,0,1,.75.75.75,0,0,0,.26,0,1,1,0,0,0,.71-1.22L40,51.13A18.61,18.61,0,0,0,42.72,50l.62,1.06a1,1,0,0,0,1.36.37,1,1,0,0,0,.37-1.37L44.45,49a17.44,17.44,0,0,0,2.36-1.82l.88.88a1,1,0,0,0,.71.29,1,1,0,0,0,.71-.29,1,1,0,0,0,0-1.42l-.88-.88A19,19,0,0,0,50,43.37l1.08.63a1,1,0,0,0,.5.13,1,1,0,0,0,.87-.5,1,1,0,0,0-.37-1.36l-1.07-.62a19.55,19.55,0,0,0,1.14-2.76l1.2.32a1.09,1.09,0,0,0,.26,0,1,1,0,0,0,1-.75,1,1,0,0,0-.7-1.22L52.72,37a19,19,0,0,0,.39-5.08.64.64,0,0,1,.39-.61,3.36,3.36,0,1,0-1.74-6.49.62.62,0,0,1-.64-.33,18.78,18.78,0,0,0-2.88-4.21l.87-.86A1,1,0,0,0,47.69,18l-.87.88A19.63,19.63,0,0,0,44.45,17L45.07,16a1,1,0,1,0-1.73-1L42.71,16A19,19,0,0,0,40,14.88l.32-1.2a1,1,0,1,0-1.93-.51L38,14.37a18.32,18.32,0,0,0-3-.4V12.73a1,1,0,1,0-2,0V14a18.61,18.61,0,0,0-3,.39l-.32-1.19a1,1,0,0,0-1.93.52l.31,1.18A20.31,20.31,0,0,0,25.41,16L24.8,15a1,1,0,1,0-1.73,1L23.68,17a19.18,19.18,0,0,0-2.37,1.83L20.45,18A1,1,0,0,0,19,19.38l.86.85a20,20,0,0,0-1.82,2.38L17,22a1,1,0,1,0-1,1.73l1.06.62a18.61,18.61,0,0,0-1.14,2.76l-1.19-.32a1,1,0,0,0-.52,1.93l1.2.32A18.93,18.93,0,0,0,15,33.11l-6.35-.44a2.5,2.5,0,0,0-2.09.9A2.48,2.48,0,0,0,6.09,35.79ZM38.49,49.5A17.16,17.16,0,0,1,24,46.78c.87-5.43,5.86-8.49,10.17-10.15.08,0,.14.12.22.16a4.85,4.85,0,0,0,2.47.67,5.19,5.19,0,0,0,1.29-.17,7,7,0,0,0,3.26-2.78l9.69-2.6C51.35,41.05,45.69,47.57,38.49,49.5ZM40.6,32.23c-1.69,2.62-2.69,3.06-3,3.13a2.95,2.95,0,0,1-1.53-5.69c1-.27,3.21.77,4.12,1.24a.87.87,0,0,1,.46.58A1,1,0,0,1,40.6,32.23ZM8.11,34.84a.47.47,0,0,1,.41-.17l6.35.43a1.92,1.92,0,0,0,1.49-.52A2,2,0,0,0,17,33.09,17.08,17.08,0,0,1,29.65,16.5h0a17.15,17.15,0,0,1,19.68,8.85,2.6,2.6,0,0,0,3,1.37A1.36,1.36,0,1,1,53,29.34h0L42.71,32.1A3.07,3.07,0,0,0,42.64,31a2.94,2.94,0,0,0-1.48-1.84c-2.44-1.26-4.31-1.72-5.55-1.39a4.93,4.93,0,0,0-3.5,6.05,5.17,5.17,0,0,0,.57,1.29c-4.32,1.8-9,4.93-10.4,10.24a16.8,16.8,0,0,1-3.86-5.46,1.91,1.91,0,0,0-1.21-1.1,1.68,1.68,0,0,0-.5-.07,1.92,1.92,0,0,0-1.07.33l-5,3.4a.5.5,0,0,1-.45,0,.49.49,0,0,1-.29-.33L8,35.27A.45.45,0,0,1,8.11,34.84Z"/><path d="M42.34,26.81a3,3,0,0,0,1.49-5.56,2.93,2.93,0,0,0-2.26-.3,3,3,0,0,0,.77,5.86Zm-.25-3.93a1,1,0,0,1,1.2.7,1,1,0,0,1-.1.74,1,1,0,0,1-.6.46,1,1,0,0,1-.74-.1,1,1,0,0,1-.46-.6A1,1,0,0,1,42.09,22.88Z"/><path d="M35,23.51a1,1,0,0,0,1.37.36h0A1,1,0,1,0,35,23.51Z"/><path d="M28.39,26.54a1,1,0,0,0,1.37.37h0a1,1,0,1,0-1-1.73,1,1,0,0,0-.37,1.36Z"/><path d="M40.75,43.36a1,1,0,0,0-.37,1.36h0a1,1,0,0,0,1.37.37h0a1,1,0,0,0-1-1.73Z"/><path d="M45.42,36.62A1,1,0,0,0,45.05,38h0a1,1,0,0,0,1.37.37h0A1,1,0,0,0,46.79,37,1,1,0,0,0,45.42,36.62Z"/><path d="M31.4,41.92A1,1,0,0,0,31,43.29h0a1,1,0,0,0,1.37.36h0a1,1,0,1,0-1-1.73Z"/><path d="M22,24.77a1,1,0,0,0,1.37.36h0a1,1,0,0,0,.36-1.36,1,1,0,1,0-1.73,1Z"/><path d="M27.8,33.15a1,1,0,0,0,1.37.36h0a1,1,0,0,0-1-1.73,1,1,0,0,0-.37,1.37Z"/><path d="M20.45,37.32a1,1,0,0,0,1.37.36h0a1,1,0,1,0-1.37-.36Z"/><path d="M29.83,19.23a1,1,0,0,0,1.36.36h0a1,1,0,0,0-1-1.73,1,1,0,0,0-.37,1.36Z"/></g></svg>